ffmpeg version 3.4.8-0ubuntu0.2 Copyright (c) 2000-2020 the FFmpeg developers
  built with gcc 7 (Ubuntu 7.5.0-3ubuntu1~18.04)
  configuration: --prefix=/usr --extra-version=0ubuntu0.2 --toolchain=hardened --libdir=/usr/lib/x86_64-linux-gnu --incdir=/usr/include/x86_64-linux-gnu --enable-gpl --disable-stripping --enable-avresample --enable-avisynth --enable-gnutls --enable-ladspa --enable-libass --enable-libbluray --enable-libbs2b --enable-libcaca --enable-libcdio --enable-libflite --enable-libfontconfig --enable-libfreetype --enable-libfribidi --enable-libgme --enable-libgsm --enable-libmp3lame --enable-libmysofa --enable-libopenjpeg --enable-libopenmpt --enable-libopus --enable-libpulse --enable-librubberband --enable-librsvg --enable-libshine --enable-libsnappy --enable-libsoxr --enable-libspeex --enable-libssh --enable-libtheora --enable-libtwolame --enable-libvorbis --enable-libvpx --enable-libwavpack --enable-libwebp --enable-libx265 --enable-libxml2 --enable-libxvid --enable-libzmq --enable-libzvbi --enable-omx --enable-openal --enable-opengl --enable-sdl2 --enable-libdc1394 --enable-libdrm --enable-libiec61883 --enable-chromaprint --enable-frei0r --enable-libopencv --enable-libx264 --enable-shared
  libavutil      55. 78.100 / 55. 78.100
  libavcodec     57.107.100 / 57.107.100
  libavformat    57. 83.100 / 57. 83.100
  libavdevice    57. 10.100 / 57. 10.100
  libavfilter     6.107.100 /  6.107.100
  libavresample   3.  7.  0 /  3.  7.  0
  libswscale      4.  8.100 /  4.  8.100
  libswresample   2.  9.100 /  2.  9.100
  libpostproc    54.  7.100 / 54.  7.100
[rawvideo @ 0x564755e31a20] Estimating duration from bitrate, this may be inaccurate
Input #0, rawvideo, from '../../SVC-Encoder-20220109T061506Z-001/SVC-Encoder/Dataset/RollerCoaster/ERP_8x8/tile_yuv/Tile_34_480x240.yuv':
  Duration: 00:00:10.00, start: 0.000000, bitrate: 41472 kb/s
    Stream #0:0: Video: rawvideo (I420 / 0x30323449), yuv420p, 480x240, 41472 kb/s, 30 tbr, 30 tbn, 30 tbc
Stream mapping:
  Stream #0:0 -> #0:0 (rawvideo (native) -> h264 (libx264))
Press [q] to stop, [?] for help
[libx264 @ 0x564755e3ec60] using cpu capabilities: MMX2 SSE2Fast LZCNT SSSE3 SSE4.2 AVX
[libx264 @ 0x564755e3ec60] profile High, level 2.1
Output #0, rawvideo, to 'RollerCoaster_Tile_34_480x240_x264_QP_36.h264':
  Metadata:
    encoder         : Lavf57.83.100
    Stream #0:0: Video: h264 (libx264), yuv420p, 480x240, q=-1--1, 30 fps, 30 tbn, 30 tbc
    Metadata:
      encoder         : Lavc57.107.100 libx264
    Side data:
      cpb: bitrate max/min/avg: 0/0/0 buffer size: 0 vbv_delay: -1
frame=  211 fps=0.0 q=42.0 PSNR=Y:nan U:nan V:nan *:nan size=      46kB time=00:00:05.60 bitrate=  67.4kbits/s speed=11.2x    frame=  300 fps=0.0 q=42.0 LPSNR=Y:inf U:inf V:inf *:inf size=      79kB time=00:00:09.93 bitrate=  64.8kbits/s speed=13.2x    
video:79kB audio:0kB subtitle:0kB other streams:0kB global headers:0kB muxing overhead: 0.000000%
[libx264 @ 0x564755e3ec60] frame I:2     Avg QP:33.68  size:  5428  PSNR Mean Y:34.91 U:43.31 V:45.17 Avg:36.42 Global:36.35
[libx264 @ 0x564755e3ec60] frame P:76    Avg QP:35.66  size:   600  PSNR Mean Y:33.30 U:43.43 V:45.00 Avg:34.88 Global:34.86
[libx264 @ 0x564755e3ec60] frame B:222   Avg QP:41.52  size:   108  PSNR Mean Y:33.07 U:43.33 V:44.91 Avg:34.66 Global:34.65
[libx264 @ 0x564755e3ec60] consecutive B-frames:  1.3%  0.0%  0.0% 98.7%
[libx264 @ 0x564755e3ec60] mb I  I16..4: 26.2% 62.6% 11.2%
[libx264 @ 0x564755e3ec60] mb P  I16..4:  0.7%  0.2%  0.0%  P16..4: 34.9%  6.5%  1.0%  0.0%  0.0%    skip:56.7%
[libx264 @ 0x564755e3ec60] mb B  I16..4:  0.0%  0.0%  0.0%  B16..8: 18.2%  0.2%  0.0%  direct: 0.0%  skip:81.6%  L0:37.5% L1:62.3% BI: 0.2%
[libx264 @ 0x564755e3ec60] 8x8 transform intra:52.6% inter:72.2%
[libx264 @ 0x564755e3ec60] coded y,uvDC,uvAC intra: 40.5% 35.3% 3.3% inter: 2.0% 0.8% 0.0%
[libx264 @ 0x564755e3ec60] i16 v,h,dc,p:  5% 61% 20% 15%
[libx264 @ 0x564755e3ec60] i8 v,h,dc,ddl,ddr,vr,hd,vl,hu:  3% 11% 43%  3%  8%  3% 11%  7% 11%
[libx264 @ 0x564755e3ec60] i4 v,h,dc,ddl,ddr,vr,hd,vl,hu:  6% 14% 22%  5% 12%  3% 18%  8% 10%
[libx264 @ 0x564755e3ec60] i8c dc,h,v,p: 74% 16%  5%  5%
[libx264 @ 0x564755e3ec60] Weighted P-Frames: Y:1.3% UV:0.0%
[libx264 @ 0x564755e3ec60] ref P L0: 64.3% 18.3% 13.0%  4.4%  0.0%
[libx264 @ 0x564755e3ec60] ref B L0: 78.1% 18.6%  3.2%
[libx264 @ 0x564755e3ec60] ref B L1: 84.1% 15.9%
[libx264 @ 0x564755e3ec60] PSNR Mean Y:33.141 U:43.358 V:44.934 Avg:34.729 Global:34.708 kb/s:64.40
